<?xml version="1.0" encoding="UTF-8"?>
<!DOCTYPE svg PUBLIC "-//W3C//DTD SVG 1.1//EN" "http://www.w3.org/Graphics/SVG/1.1/DTD/svg11.dtd">
<!-- Creator: CorelDRAW X7 -->
<svg xmlns="http://www.w3.org/2000/svg" xml:space="preserve" width="1100px" height="900px" version="1.1" style="shape-rendering:geometricPrecision; text-rendering:geometricPrecision; image-rendering:optimizeQuality; fill-rule:evenodd; clip-rule:evenodd"
viewBox="0 0 1100 900"
 xmlns:xlink="http://www.w3.org/1999/xlink">
 <defs>
  <style type="text/css">
   <![CDATA[
    .fil14 {fill:#363434}
    .fil3 {fill:#3D3D3D}
    .fil0 {fill:#4E4E4E}
    .fil7 {fill:#55CAF5}
    .fil8 {fill:#60C8D9}
    .fil4 {fill:#6C6D6D}
    .fil6 {fill:#8DDBFC}
    .fil9 {fill:#A9ABAE}
    .fil16 {fill:#BDBFC1}
    .fil2 {fill:#BFC0BF}
    .fil15 {fill:#CC5056}
    .fil1 {fill:#E0E1E0}
    .fil13 {fill:#E6E7E8}
    .fil5 {fill:#F3F4F4}
    .fil10 {fill:#FEFEFE}
    .fil12 {fill:#41C2F1;fill-rule:nonzero}
    .fil11 {fill:#4E4E4E;fill-rule:nonzero}
   ]]>
  </style>
 </defs>
 <g id="Layer_x0020_1">
  <metadata id="CorelCorpID_0Corel-Layer"/>
  <g id="_2251053195568">
   <path class="fil0" d="M987 669l-169 -169 -39 39 170 169c11,11 29,10 39,-2 10,-11 9,-27 -1,-37z"/>
   <path class="fil1" d="M752 520l36 36c2,2 5,2 6,0l41 -41c2,-2 2,-5 0,-6l-36 -36 -47 47z"/>
   <polygon class="fil2" points="805,478 809,483 771,539 754,522 "/>
   <polygon class="fil3" points="807,566 796,555 834,517 837,519 "/>
   <polygon class="fil4" points="796,555 796,555 834,517 "/>
   <path class="fil5" d="M636 525c-93,0 -168,-75 -168,-168 0,-93 75,-169 168,-169 93,0 168,76 168,169 0,93 -75,168 -168,168zm0 -380c-117,0 -212,95 -212,212 0,117 95,212 212,212 117,0 212,-95 212,-212 0,-117 -95,-212 -212,-212z"/>
   <path class="fil6" d="M526 485c-36,-31 -58,-77 -58,-128 0,-93 75,-169 168,-169 0,0 0,0 1,0 -20,7 -36,16 -52,28 -48,35 -82,91 -85,155 -1,42 6,81 26,114z"/>
   <path class="fil7" d="M636 525c-42,0 -80,-15 -110,-40 -20,-33 -31,-72 -29,-114 4,-86 62,-158 140,-183 92,1 167,76 167,169 0,93 -75,168 -168,168z"/>
   <path class="fil8" d="M636 525c-93,0 -168,-75 -168,-168l0 0c0,51 22,97 58,128 30,25 68,40 110,40 93,0 168,-75 168,-168l0 0c0,93 -75,168 -168,168z"/>
   <polygon class="fil9" points="297,384 287,374 276,384 266,374 255,384 266,395 255,405 266,416 276,405 287,416 297,405 287,395 "/>
   <polygon class="fil9" points="513,77 502,66 492,76 482,66 471,77 481,87 471,97 482,108 492,98 502,108 513,97 503,87 "/>
   <path class="fil9" d="M241 170c-5,0 -10,4 -10,9 0,5 5,9 10,9 5,0 9,-4 9,-9 0,-5 -4,-9 -9,-9zm0 25c-9,0 -16,-7 -16,-16 0,-9 7,-16 16,-16 8,0 15,7 15,16 0,9 -7,16 -15,16z"/>
   <path class="fil9" d="M403 234c0,16 -14,29 -30,29 -16,0 -29,-13 -29,-29 0,-16 13,-29 29,-29 16,0 30,13 30,29z"/>
   <path class="fil9" d="M414 445c0,8 -6,14 -15,14 -8,0 -14,-6 -14,-14 0,-8 6,-15 14,-15 9,0 15,7 15,15z"/>
   <path class="fil9" d="M228 280c0,8 -6,14 -14,14 -8,0 -15,-6 -15,-14 0,-8 7,-15 15,-15 8,0 14,7 14,15z"/>
   <polygon class="fil9" points="900,148 889,137 879,147 869,137 858,148 868,158 858,168 869,179 879,169 889,179 900,168 890,158 "/>
   <polygon class="fil9" points="937,456 926,445 916,455 906,445 895,456 905,466 895,476 906,487 916,477 926,487 937,476 927,466 "/>
   <path class="fil9" d="M681 57c-5,0 -9,4 -9,9 0,5 4,9 9,9 5,0 9,-4 9,-9 0,-5 -4,-9 -9,-9zm0 25c-8,0 -16,-8 -16,-16 0,-9 8,-16 16,-16 9,0 16,7 16,16 0,8 -7,16 -16,16z"/>
   <path class="fil9" d="M994 357c-5,0 -9,4 -9,9 0,6 4,10 9,10 5,0 9,-4 9,-10 0,-5 -4,-9 -9,-9zm0 25c-9,0 -16,-7 -16,-16 0,-8 7,-15 16,-15 9,0 16,7 16,15 0,9 -7,16 -16,16z"/>
   <path class="fil9" d="M1045 252c0,8 -7,14 -15,14 -8,0 -15,-6 -15,-14 0,-9 7,-15 15,-15 8,0 15,6 15,15z"/>
   <path class="fil9" d="M894 290c0,8 -7,14 -15,14 -8,0 -15,-6 -15,-14 0,-9 7,-15 15,-15 8,0 15,6 15,15z"/>
   <path class="fil9" d="M879 304c-8,0 -15,-6 -15,-14 0,-6 3,-10 7,-13 5,8 9,17 13,26 -1,1 -3,1 -5,1z"/>
   <path class="fil10" d="M524 245c-24,24 -39,49 -32,56 6,6 31,-9 55,-33 24,-24 39,-49 33,-56 -7,-6 -31,9 -56,33z"/>
   <path class="fil11" d="M67 678l-6 5c-2,-3 -4,-4 -7,-4 -1,0 -1,0 -2,0 -1,1 -1,2 -1,2 0,1 0,2 1,2 0,1 2,3 6,6 3,2 5,4 5,5 2,1 3,3 4,5 0,1 1,3 1,5 0,3 -1,6 -4,8 -2,3 -5,4 -9,4 -3,0 -6,-1 -8,-2 -3,-2 -5,-4 -6,-8l7 -4c2,4 4,6 7,6 1,0 2,0 3,-1 1,-1 2,-2 2,-3 0,-1 -1,-2 -1,-3 -1,-1 -3,-2 -5,-4 -5,-4 -8,-7 -9,-9 -1,-2 -2,-4 -2,-6 0,-3 1,-6 3,-8 2,-2 5,-3 9,-3 2,0 4,0 6,1 2,1 4,3 6,6zm29 -7c6,0 11,2 15,6 5,5 7,10 7,16 0,7 -2,12 -6,16 -5,5 -10,7 -16,7 -7,0 -12,-2 -16,-7 -4,-4 -7,-10 -7,-16 0,-4 1,-8 3,-11 2,-4 5,-6 9,-8 3,-2 7,-3 11,-3zm0 8c-4,0 -8,1 -10,4 -3,3 -4,6 -4,10 0,5 1,9 5,12 2,2 5,3 9,3 4,0 7,-2 10,-4 2,-3 4,-7 4,-11 0,-4 -2,-7 -4,-10 -3,-3 -6,-4 -10,-4zm30 -7l9 0c5,0 8,0 10,1 2,1 4,2 5,4 1,2 2,5 2,7 0,3 -1,5 -2,7 -2,2 -4,4 -6,5l10 19 -9 0 -10 -18 -1 0 0 18 -8 0 0 -43zm8 17l3 0c3,0 4,-1 5,-1 1,-1 2,-2 2,-4 0,-1 0,-2 -1,-2 0,-1 -1,-2 -2,-2 -1,0 -2,0 -4,0l-3 0 0 9zm27 -17l9 0c4,0 8,0 10,1 2,1 3,2 5,4 1,2 1,5 1,7 0,3 0,5 -2,7 -1,2 -3,4 -6,5l11 19 -9 0 -10 -18 -1 0 0 18 -8 0 0 -43zm8 17l3 0c2,0 4,-1 5,-1 1,-1 2,-2 2,-4 0,-1 -1,-2 -1,-2 -1,-1 -1,-2 -2,-2 -1,0 -2,0 -5,0l-2 0 0 9zm23 -17l9 0 8 15 8 -15 8 0 -12 24 0 19 -8 0 0 -19 -13 -24zm44 34c1,0 2,1 3,2 1,1 1,2 1,3 0,1 0,2 -1,3 -1,1 -2,1 -3,1 -2,0 -3,0 -4,-1 -1,-1 -1,-2 -1,-3 0,-1 0,-2 1,-3 1,-1 2,-2 4,-2zm16 0c2,0 3,1 4,2 0,1 1,2 1,3 0,1 -1,2 -1,3 -1,1 -2,1 -4,1 -1,0 -2,0 -3,-1 -1,-1 -1,-2 -1,-3 0,-1 0,-2 1,-3 1,-1 2,-2 3,-2zm13 -35l8 0 0 31 -8 0 0 -31zm4 34c1,0 3,1 4,2 1,1 1,2 1,3 0,2 0,3 -1,4 -1,1 -3,1 -4,1 -1,0 -3,0 -3,-1 -1,-1 -2,-2 -2,-4 0,-1 1,-2 2,-3 0,-1 2,-2 3,-2zm13 -34l8 0 0 31 -8 0 0 -31zm4 34c1,0 2,1 3,2 1,1 2,2 2,3 0,2 -1,3 -2,4 -1,1 -2,1 -3,1 -2,0 -3,0 -4,-1 -1,-1 -1,-2 -1,-4 0,-1 0,-2 1,-3 1,-1 2,-2 4,-2zm30 -33l8 0 18 28 0 -28 8 0 0 43 -8 0 -18 -28 0 28 -8 0 0 -43zm64 -1c6,0 12,2 16,6 4,5 6,10 6,16 0,7 -2,12 -6,16 -4,5 -10,7 -16,7 -6,0 -11,-2 -16,-7 -4,-4 -6,-10 -6,-16 0,-4 1,-8 3,-11 2,-4 5,-6 8,-8 4,-2 7,-3 11,-3zm0 8c-4,0 -7,1 -10,4 -3,3 -4,6 -4,10 0,5 2,9 5,12 3,2 6,3 9,3 4,0 7,-2 10,-4 3,-3 4,-7 4,-11 0,-4 -1,-7 -4,-10 -3,-3 -6,-4 -10,-4zm47 -7l9 0c5,0 8,0 10,1 2,1 4,2 5,4 1,2 2,5 2,7 0,3 -1,5 -2,7 -1,2 -3,4 -6,5l10 19 -9 0 -10 -18 0 0 0 18 -9 0 0 -43zm9 17l2 0c3,0 5,-1 6,-1 1,-1 1,-2 1,-4 0,-1 0,-2 -1,-2 0,-1 -1,-2 -2,-2 0,0 -2,0 -4,0l-2 0 0 9zm26 -17l23 0 0 8 -15 0 0 7 15 0 0 8 -15 0 0 12 15 0 0 8 -23 0 0 -43zm53 6l-6 5c-2,-3 -4,-4 -6,-4 -1,0 -2,0 -3,0 -1,1 -1,2 -1,2 0,1 0,2 1,2 0,1 2,3 6,6 3,2 5,4 5,5 2,1 3,3 4,5 1,1 1,3 1,5 0,3 -1,6 -4,8 -2,3 -5,4 -9,4 -3,0 -6,-1 -8,-2 -2,-2 -4,-4 -6,-8l7 -4c2,4 4,6 7,6 1,0 3,0 4,-1 1,-1 1,-2 1,-3 0,-1 0,-2 -1,-3 -1,-1 -2,-2 -5,-4 -5,-4 -8,-7 -9,-9 -1,-2 -2,-4 -2,-6 0,-3 1,-6 3,-8 3,-2 5,-3 9,-3 2,0 4,0 6,1 2,1 4,3 6,6zm8 -6l9 0 0 28c0,2 0,4 0,5 1,1 1,1 2,2 1,1 2,1 4,1 1,0 3,0 4,-1 1,-1 1,-2 2,-3 0,-1 0,-3 0,-5l0 -27 9 0 0 25c0,5 -1,8 -1,9 -1,2 -2,4 -3,5 -1,2 -3,3 -5,4 -2,0 -4,1 -6,1 -3,0 -6,-1 -8,-2 -2,-2 -4,-4 -5,-6 -1,-2 -2,-6 -2,-11l0 -25zm39 0l8 0 0 35 12 0 0 8 -20 0 0 -43zm22 0l24 0 0 8 -8 0 0 35 -8 0 0 -35 -8 0 0 -8zm52 6l-6 5c-2,-3 -4,-4 -7,-4 -1,0 -2,0 -2,0 -1,1 -1,2 -1,2 0,1 0,2 1,2 0,1 2,3 6,6 3,2 5,4 5,5 2,1 3,3 4,5 0,1 1,3 1,5 0,3 -1,6 -4,8 -2,3 -6,4 -9,4 -3,0 -6,-1 -8,-2 -3,-2 -5,-4 -6,-8l7 -4c2,4 4,6 7,6 1,0 2,0 3,-1 1,-1 2,-2 2,-3 0,-1 -1,-2 -1,-3 -1,-1 -3,-2 -5,-4 -5,-4 -8,-7 -9,-9 -2,-2 -2,-4 -2,-6 0,-3 1,-6 3,-8 2,-2 5,-3 9,-3 2,0 4,0 6,1 2,1 4,3 6,6zm25 -6l22 0 0 8 -13 0 0 7 13 0 0 8 -13 0 0 20 -9 0 0 -43zm49 -1c6,0 11,2 16,6 4,5 6,10 6,16 0,7 -2,12 -6,16 -4,5 -10,7 -16,7 -6,0 -12,-2 -16,-7 -4,-4 -6,-10 -6,-16 0,-4 1,-8 3,-11 2,-4 4,-6 8,-8 3,-2 7,-3 11,-3zm0 8c-4,0 -7,1 -10,4 -3,3 -4,6 -4,10 0,5 2,9 5,12 3,2 6,3 9,3 4,0 7,-2 10,-4 3,-3 4,-7 4,-11 0,-4 -1,-7 -4,-10 -3,-3 -6,-4 -10,-4zm30 -7l8 0 0 28c0,2 0,4 1,5 0,1 1,1 2,2 1,1 2,1 3,1 2,0 3,0 4,-1 1,-1 2,-2 2,-3 1,-1 1,-3 1,-5l0 -27 8 0 0 25c0,5 0,8 -1,9 0,2 -1,4 -3,5 -1,2 -3,3 -4,4 -2,0 -4,1 -7,1 -3,0 -5,-1 -8,-2 -2,-2 -4,-4 -5,-6 -1,-2 -1,-6 -1,-11l0 -25zm38 0l8 0 19 28 0 -28 8 0 0 43 -8 0 -18 -28 0 28 -9 0 0 -43zm45 0l9 0c7,0 11,1 14,2 3,2 6,4 8,8 2,3 3,7 3,12 0,3 -1,6 -2,9 -1,3 -3,5 -5,7 -1,2 -4,3 -6,4 -2,0 -6,1 -12,1l-9 0 0 -43zm8 8l0 27 4 0c3,0 6,-1 8,-2 1,0 3,-2 4,-4 1,-2 1,-4 1,-7 0,-5 -1,-8 -3,-11 -3,-2 -6,-3 -11,-3l-3 0z"/>
   <path class="fil13" d="M213 491c-5,-4 -10,-5 -12,-16 -1,-4 -2,-18 -2,-18 0,-16 0,-23 0,-31 0,-35 -27,-64 -62,-64 -36,0 -60,29 -62,64 -1,13 0,32 -4,48 -2,10 -12,23 -20,26 -12,4 -16,19 0,19 7,0 15,-7 22,-14 -1,19 -1,32 -1,32 0,1 0,19 16,19 9,0 16,-7 16,-15l0 0c1,8 8,15 16,15 9,0 16,-7 16,-15l1 0c0,8 7,15 16,15 8,0 15,-7 16,-15l0 0c0,8 7,15 16,15 8,0 15,-7 16,-15l0 0 0 -1 0 0 -1 -34c3,2 6,5 11,7 13,7 19,-1 17,-10 -2,-6 -9,-6 -15,-12z"/>
   <path class="fil14" d="M148 448c0,8 -6,14 -13,14 -8,0 -14,-6 -14,-14 0,-7 6,-13 14,-13 7,0 13,6 13,13z"/>
   <path class="fil15" d="M135 462c4,0 9,-2 11,-6 -2,-5 -7,-8 -12,-8 -5,0 -9,3 -12,7 3,4 7,7 13,7z"/>
   <path class="fil13" d="M195 600c0,4 -27,7 -60,7 -34,0 -61,-3 -61,-7 0,-4 27,-7 61,-7 33,0 60,3 60,7z"/>
   <path class="fil16" d="M104 393c0,-2 -2,-2 -4,-1 -2,1 -3,4 -2,6 0,2 2,2 4,1 2,-2 3,-4 2,-6z"/>
   <path class="fil16" d="M125 376c-1,-2 -6,-1 -11,2 -5,4 -8,8 -7,10 2,2 7,1 12,-2 5,-3 8,-8 6,-10z"/>
   <path class="fil14" d="M177 421c0,4 -3,8 -8,8 -4,0 -8,-4 -8,-8 0,-5 4,-8 8,-8 5,0 8,3 8,8z"/>
   <path class="fil14" d="M108 421c0,4 -4,8 -8,8 -5,0 -8,-4 -8,-8 0,-5 3,-8 8,-8 4,0 8,3 8,8z"/>
   <path class="fil10" d="M191 373l1 -1c2,-1 4,-1 5,1 1,1 1,3 0,4l-2 1c-1,1 -3,1 -4,0 -1,-1 -1,-3 0,-5zm11 -9l14 -13c2,-1 4,-1 5,0 1,1 1,3 -1,4l-14 14c-1,1 -3,1 -4,-1 -2,-1 -2,-3 0,-4z"/>
   <path class="fil10" d="M184 366l1 -1c1,-2 2,-2 4,-1 1,1 1,3 0,4l-1 1c-1,2 -3,2 -4,1 -1,-1 -1,-3 0,-4zm8 -10l12 -14c1,-1 3,-2 4,-1 2,1 2,3 1,4l-12 14c-1,2 -3,2 -4,1 -2,-1 -2,-3 -1,-4z"/>
   <path class="fil10" d="M199 382l1 -1c2,-1 3,0 4,1 1,1 1,3 -1,4l-1 1c-1,1 -3,0 -4,-1l0 0c-1,-1 0,-3 1,-4zm11 -7l16 -10c1,-1 3,-1 4,1l0 0c1,1 0,3 -1,4l-16 10c-1,1 -3,0 -4,-1 0,-1 0,-3 1,-4z"/>
  </g>
 </g>
</svg>
